<svg width="300" height="101" viewBox="0 0 300 101" fill="none" xmlns="http://www.w3.org/2000/svg">
<path fill-rule="evenodd" clip-rule="evenodd" d="M89.2254 49.4366C87.5352 45.8451 83.7324 43.2394 79.7183 43.2394C71.4789 43.2394 69.4366 49.6479 69.4366 56.9014C69.4366 64.2253 71.338 70.6338 79.7183 70.6338C86.0563 70.6338 89.2254 66.831 89.2254 60.5634V49.4366ZM89.2254 29.4366V26.1972C89.2254 23.9437 91.0563 22.1127 93.3099 22.1127C95.5634 22.1127 97.3944 23.9437 97.3944 26.1972V29.4366V36.1972V60.5634C97.3944 71.5493 90.7042 78.3098 79.7183 78.3098C66.4789 78.3098 61.338 69.1549 61.338 56.9014C61.338 44.7183 66.1268 35.5634 79.4366 35.5634C82.8873 35.5634 86.4789 36.6901 89.2958 38.8732V36.1972L89.2254 29.4366Z" fill="#0779E4"/>
<path fill-rule="evenodd" clip-rule="evenodd" d="M49.6479 52.3944C49.2958 46.9014 46.831 43.2394 40.493 43.2394C34.3662 43.2394 31.1972 46.9014 30.4225 52.3944H49.6479ZM30.2817 59.9296C30.7746 66.1972 34.507 70.5634 41.338 70.5634C45.0704 70.5634 47.5352 69.4366 50.4225 67.2535L50.493 67.1831C51.2676 66.6901 51.831 66.4789 52.7465 66.4789C54.8592 66.4789 56.5493 68.169 56.5493 70.2817C56.5493 71.5493 56.0563 72.3239 55.2113 73.169C51.7606 76.6197 46.0563 78.2394 41.2676 78.2394C27.8169 78.2394 21.9718 69.7183 21.9718 56.831C21.9718 44.9296 27.5352 35.493 40.493 35.493C51.2676 35.493 57.7465 42.6056 57.7465 53.0986C57.7465 56.4084 57.2535 59.8591 53.0282 59.8591L30.2817 59.9296Z" fill="#0779E4"/>
<path fill-rule="evenodd" clip-rule="evenodd" d="M167.817 36.0563C170.07 36.0563 171.901 37.8873 171.901 40.1408V61.7606C171.901 67.8169 174.296 70.3521 180.563 70.3521C186.831 70.3521 189.225 67.8169 189.225 61.7606V40.1408C189.225 37.8169 191.127 36.0563 193.38 36.0563C195.634 36.0563 197.394 37.8873 197.394 40.1408V61.7606C197.394 72.8873 191.972 78.2394 180.563 78.2394C169.155 78.2394 163.732 72.8169 163.732 61.7606V40.1408C163.732 37.8873 165.493 36.0563 167.817 36.0563Z" fill="#0779E4"/>
<path fill-rule="evenodd" clip-rule="evenodd" d="M142.254 37.8169C142.254 28.3099 148.31 22.1127 158.028 22.1127C160.211 22.1127 161.972 23.8028 161.972 26.0563C161.972 28.2394 160.282 30 158.028 30C152.817 30 150.423 32.7465 150.423 37.8169V41.2676H156.549C158.732 41.2676 160.493 42.9577 160.493 45.2113C160.493 47.3944 158.803 49.1549 156.549 49.1549H150.423V58.8732V64.507V64.9296V72.1831V72.6056V73.8732V74.2958C150.423 76.5493 148.592 78.3803 146.338 78.3803C144.085 78.3803 142.254 76.5493 142.254 74.2958V73.8732V72.5352V72.1127V64.8592V64.4366V58.8028V37.8169Z" fill="#0779E4"/>
<path fill-rule="evenodd" clip-rule="evenodd" d="M269.648 49.4366C267.958 45.8451 264.155 43.2394 260.141 43.2394C251.901 43.2394 249.859 49.6479 249.859 56.9014C249.859 64.2253 251.761 70.6338 260.141 70.6338C266.479 70.6338 269.648 66.831 269.648 60.5634V49.4366ZM269.648 29.4366V26.1972C269.648 23.9437 271.479 22.1127 273.732 22.1127C275.986 22.1127 277.817 23.9437 277.817 26.1972V29.4366V36.1972V60.5634C277.817 71.5493 271.127 78.3098 260.141 78.3098C246.901 78.3098 241.761 69.1549 241.761 56.9014C241.761 44.7183 246.549 35.5634 259.859 35.5634C263.31 35.5634 266.901 36.6901 269.718 38.8732V36.1972L269.648 29.4366Z" fill="#0779E4"/>
<path fill-rule="evenodd" clip-rule="evenodd" d="M207.113 78.3098C209.366 78.3098 211.197 76.4789 211.197 74.2253V52.6056C211.197 46.5493 213.592 44.0141 219.859 44.0141C226.127 44.0141 228.521 46.5493 228.521 52.6056V74.2253C228.521 76.5493 230.423 78.3098 232.676 78.3098C234.93 78.3098 236.69 76.4789 236.69 74.2253V52.6056C236.69 41.4789 231.268 36.1268 219.859 36.1268C208.451 36.1268 203.028 41.5493 203.028 52.6056V74.2253C203.028 76.4789 204.859 78.3098 207.113 78.3098Z" fill="#0779E4"/>
<path fill-rule="evenodd" clip-rule="evenodd" d="M110.915 61.1268V61.7606C110.915 67.8169 113.31 70.3521 119.577 70.3521C125.845 70.3521 128.239 67.8169 128.239 61.7606V60.9859V60.2817C128.239 57.9577 130.141 56.1972 132.394 56.1972C134.648 56.1972 136.408 58.0282 136.408 60.2817V60.6338V61.831V62.8169C136.056 73.2394 130.634 78.3099 119.577 78.3099C108.239 78.3099 102.817 72.9577 102.746 62.0423V61.831V60.3521V60.2817C102.746 58.0282 104.577 56.1972 106.831 56.1972C109.085 56.1972 110.915 58.0282 110.915 60.2817V61.1268Z" fill="#FF9700"/>
<path d="M110.915 48.169C110.915 50.4225 109.085 52.2535 106.831 52.2535C104.577 52.2535 102.746 50.4225 102.746 48.169V47.1127V45.9859V44.9296C102.746 42.676 104.577 40.8451 106.831 40.8451C109.085 40.8451 110.915 42.676 110.915 44.9296V45.9859V47.1127V48.169Z" fill="#0779E4"/>
<path d="M136.408 40.1408C136.408 37.8873 134.577 36.0563 132.324 36.0563C130.07 36.0563 128.239 37.8873 128.239 40.1408V41.9718V42.3239V48.169C128.239 50.4225 130.07 52.2535 132.324 52.2535C134.577 52.2535 136.408 50.4225 136.408 48.169V42.3239V41.9718C136.408 42.0422 136.408 40.1408 136.408 40.1408Z" fill="#0779E4"/>
</svg>
